<?xml version="1.0" encoding="iso-8859-1"?>
<!-- Generator: Adobe Illustrator 19.0.0, SVG Export Plug-In . SVG Version: 6.00 Build 0)  -->
<svg version="1.1" id="Layer_1" xmlns="http://www.w3.org/2000/svg" xmlns:xlink="http://www.w3.org/1999/xlink" x="0px" y="0px"
	 viewBox="0 0 512 512" style="enable-background:new 0 0 512 512;" xml:space="preserve">
<g>
	<g>
		<path d="M311.296,319.147c-5.12-7.68-13.653-11.947-22.187-11.947h-7.68v-31.573l32.427-48.64c1.707-1.707,1.707-3.413,1.707-5.12
			v-153.6H196.096v153.6c0,1.707,0.853,3.413,1.707,5.12l32.427,48.64V307.2h-6.827c-8.533,0-17.067,4.267-22.187,11.947
			c-5.12,7.68-5.973,17.067-2.56,24.747l6.827,17.067c0,0,0.853,0.853,0.853,1.707c8.533,16.213,9.387,35.84,2.56,62.293
			c0,0.853,0,0.853-0.853,1.707h30.72c5.12,0,8.533,3.413,8.533,8.533s-3.413,8.533-8.533,8.533h-34.133V460.8h34.133
			c5.12,0,8.533,3.413,8.533,8.533s-3.413,8.533-8.533,8.533h-31.573c5.973,19.627,24.747,34.133,46.08,34.133h5.12
			c27.307,0,48.64-22.187,48.64-48.64v-19.627c0-5.973-1.707-12.8-3.413-18.773c-7.68-24.747-6.827-46.933,2.56-62.293
			c0,0,0-0.853,0.853-0.853l6.827-17.92C317.269,335.36,316.416,325.973,311.296,319.147z M264.363,307.2h-17.067v-25.6h17.067
			V307.2z"/>
	</g>
</g>
<g>
	<g>
		<path d="M307.029,0h-102.4c-4.267,0-8.533,4.267-8.533,8.533V51.2h119.467V8.533C315.563,3.413,312.149,0,307.029,0z"/>
	</g>
</g>
<g>
</g>
<g>
</g>
<g>
</g>
<g>
</g>
<g>
</g>
<g>
</g>
<g>
</g>
<g>
</g>
<g>
</g>
<g>
</g>
<g>
</g>
<g>
</g>
<g>
</g>
<g>
</g>
<g>
</g>
</svg>
