<?xml version="1.0" encoding="iso-8859-1"?>
<!-- Generator: Adobe Illustrator 19.0.0, SVG Export Plug-In . SVG Version: 6.00 Build 0)  -->
<svg version="1.1" id="Capa_1" xmlns="http://www.w3.org/2000/svg" xmlns:xlink="http://www.w3.org/1999/xlink" x="0px" y="0px"
	 viewBox="0 0 512 512" style="enable-background:new 0 0 512 512;" xml:space="preserve">
<g>
	<g>
		<path d="M458.667,0H181.333c-2.837,0-5.547,1.131-7.552,3.115l-128,128c-1.984,2.005-3.115,4.715-3.115,7.552v160h32
			c41.173,0,74.667,33.493,74.667,74.667c0,5.888,4.779,10.667,10.667,10.667h192c5.888,0,10.667-4.779,10.667-10.667
			c0-41.173,33.493-74.667,74.667-74.667h32v-288C469.333,4.779,464.555,0,458.667,0z M170.667,128H79.083l91.584-91.584V128z"/>
	</g>
</g>
<g>
	<g>
		<path d="M437.333,320c-17.643,0-32,14.357-32,32c0,29.397-23.936,53.333-53.333,53.333H160c-29.397,0-53.333-23.936-53.333-53.333
			c0-17.643-14.357-32-32-32H0v138.667C0,488.064,23.936,512,53.333,512h405.333C488.064,512,512,488.064,512,458.667V320H437.333z"
			/>
	</g>
</g>
<g>
	<g>
		<path d="M14.443,275.456c-5.184,7.104-8.896,14.955-11.307,23.211h18.197v-33.92L14.443,275.456z"/>
	</g>
</g>
<g>
	<g>
		<path d="M499.456,276.629l-8.789-13.184v35.221h18.645C507.221,290.88,504,283.435,499.456,276.629z"/>
	</g>
</g>
<g>
</g>
<g>
</g>
<g>
</g>
<g>
</g>
<g>
</g>
<g>
</g>
<g>
</g>
<g>
</g>
<g>
</g>
<g>
</g>
<g>
</g>
<g>
</g>
<g>
</g>
<g>
</g>
<g>
</g>
</svg>
