<?xml version="1.0" encoding="iso-8859-1"?>
<!-- Generator: Adobe Illustrator 18.0.0, SVG Export Plug-In . SVG Version: 6.00 Build 0)  -->
<!DOCTYPE svg PUBLIC "-//W3C//DTD SVG 1.1//EN" "http://www.w3.org/Graphics/SVG/1.1/DTD/svg11.dtd">
<svg version="1.1" id="Capa_1" xmlns="http://www.w3.org/2000/svg" xmlns:xlink="http://www.w3.org/1999/xlink" x="0px" y="0px"
	 viewBox="0 0 297 297" style="enable-background:new 0 0 297 297;" xml:space="preserve">
<g>
	<path d="M191.757,166.922c0,5.554,4.503,10.057,10.058,10.057h79.898c5.554,0,10.058-4.503,10.058-10.057v-76.33H191.757V166.922z"
		/>
	<path d="M153.876,220.808c-27.313,0-49.927-20.45-53.387-46.846H32.17c3.659,63.984,56.845,114.918,121.706,114.918
		c58.927,0,108.216-42.041,119.486-97.713h-71.419C193.061,208.731,174.861,220.808,153.876,220.808z"/>
	<path d="M286.942,8.12h-90.357c-5.554,0-10.057,4.503-10.057,10.058l0,49.785c0,5.554,4.503,10.048,10.058,10.048l90.357,0
		c5.554,0,10.058-4.494,10.057-10.049V18.177C297,12.623,292.497,8.12,286.942,8.12z"/>
	<path d="M100.015,159.882v-40.917c0-0.586-0.081-14.523-7.054-28.474c-6.735-13.476-21.04-29.539-50.942-29.539H10.058
		C4.503,60.951,0,65.455,0,71.009v47.956c0,5.554,4.503,10.058,10.058,10.058h15.98c1.56,0,5.698,0,5.924,6.038v24.821H100.015z"/>
</g>
<g>
</g>
<g>
</g>
<g>
</g>
<g>
</g>
<g>
</g>
<g>
</g>
<g>
</g>
<g>
</g>
<g>
</g>
<g>
</g>
<g>
</g>
<g>
</g>
<g>
</g>
<g>
</g>
<g>
</g>
</svg>
