<?xml version="1.0" encoding="iso-8859-1"?>
<!-- Generator: Adobe Illustrator 18.1.1, SVG Export Plug-In . SVG Version: 6.00 Build 0)  -->
<svg version="1.1" id="Capa_1" xmlns="http://www.w3.org/2000/svg" xmlns:xlink="http://www.w3.org/1999/xlink" x="0px" y="0px"
	 viewBox="0 0 30.066 30.066" style="enable-background:new 0 0 30.066 30.066;" xml:space="preserve">
<g>
	<path d="M20.617,6.649V5.712H9.451v0.937c0,0,1.697,4.73,4.885,6.914v2.272c0,0-3.516,3.422-4.885,7.354v1.072h11.166v-1.072
		c-1.782-4.341-4.887-7.354-4.887-7.354v-2.272C20.065,9.838,20.617,6.649,20.617,6.649z"/>
	<path d="M24.64,4.909V3.221h1.604V0H3.822v3.221h1.604v1.688c0,2.579,4.626,9.62,4.843,10.128
		c-0.212,0.509-4.843,7.551-4.843,10.119v1.687H3.822v3.223h22.422v-3.223H24.64v-1.687c0-2.58-4.627-9.576-4.875-10.124
		C20.013,14.485,24.64,7.486,24.64,4.909z M23.042,25.156v1.687H7.026v-1.687c0-1.853,4.907-9.194,4.907-10.124
		S7.026,6.762,7.026,4.909V3.221h16.016v1.688c0,1.853-4.948,9.193-4.948,10.123S23.042,23.303,23.042,25.156z"/>
	<g>
	</g>
	<g>
	</g>
	<g>
	</g>
	<g>
	</g>
	<g>
	</g>
	<g>
	</g>
	<g>
	</g>
	<g>
	</g>
	<g>
	</g>
	<g>
	</g>
	<g>
	</g>
	<g>
	</g>
	<g>
	</g>
	<g>
	</g>
	<g>
	</g>
</g>
<g>
</g>
<g>
</g>
<g>
</g>
<g>
</g>
<g>
</g>
<g>
</g>
<g>
</g>
<g>
</g>
<g>
</g>
<g>
</g>
<g>
</g>
<g>
</g>
<g>
</g>
<g>
</g>
<g>
</g>
</svg>
